<svg width="41" height="40" viewBox="0 0 41 40" fill="none" xmlns="http://www.w3.org/2000/svg">
<path d="M24.6667 12.4999C24.8856 12.2811 25.1455 12.1074 25.4314 11.989C25.7174 11.8705 26.0239 11.8096 26.3334 11.8096C26.6429 11.8096 26.9494 11.8705 27.2354 11.989C27.5214 12.1074 27.7812 12.2811 28.0001 12.4999C28.219 12.7188 28.3926 12.9786 28.511 13.2646C28.6295 13.5506 28.6904 13.8571 28.6904 14.1666C28.6904 14.4761 28.6295 14.7826 28.511 15.0686C28.3926 15.3546 28.219 15.6144 28.0001 15.8333L16.7501 27.0833L12.1667 28.3333L13.4167 23.7499L24.6667 12.4999Z" stroke="#667085" stroke-width="1.66667" stroke-linecap="round" stroke-linejoin="round"/>
</svg>
