<svg width="41" height="40" viewBox="0 0 41 40" fill="none" xmlns="http://www.w3.org/2000/svg">
<path d="M13 15.0001H14.6667M14.6667 15.0001H28M14.6667 15.0001V26.6667C14.6667 27.1088 14.8423 27.5327 15.1548 27.8453C15.4674 28.1578 15.8913 28.3334 16.3333 28.3334H24.6667C25.1087 28.3334 25.5326 28.1578 25.8452 27.8453C26.1577 27.5327 26.3333 27.1088 26.3333 26.6667V15.0001H14.6667ZM17.1667 15.0001V13.3334C17.1667 12.8914 17.3423 12.4675 17.6548 12.1549C17.9674 11.8423 18.3913 11.6667 18.8333 11.6667H22.1667C22.6087 11.6667 23.0326 11.8423 23.3452 12.1549C23.6577 12.4675 23.8333 12.8914 23.8333 13.3334V15.0001M18.8333 19.1667V24.1667M22.1667 19.1667V24.1667" stroke="#667085" stroke-width="1.66667" stroke-linecap="round" stroke-linejoin="round"/>
</svg>
